HIERARCHY
ROOT Hips
{
	OFFSET	0.00	0.00	0.00
	CHANNELS 6 Xposition Yposition Zposition Zrotation Xrotation Yrotation
	JOINT LeftUpLeg
	{
		OFFSET	 0.126116	-0.014019	-0.065224
		CHANNELS 3 Zrotation Xrotation Yrotation
		JOINT LeftLeg
		{
			OFFSET	 0.000000	 0.000000	 0.569914
			CHANNELS 3 Zrotation Xrotation Yrotation
			JOINT LeftFoot
			{
				OFFSET	 0.000000	 0.000000	 0.544423
				CHANNELS 3 Zrotation Xrotation Yrotation
				JOINT LeftToeBase
				{
					OFFSET	 0.000000	 0.000000	 0.207117
					CHANNELS 3 Zrotation Xrotation Yrotation
					End Site
					{
						OFFSET	 0.000000	 0.000000	 0.207117
					}
				}
			}
		}
	}
	JOINT RightUpLeg
	{
		OFFSET	-0.124023	-0.008373	-0.065224
		CHANNELS 3 Zrotation Xrotation Yrotation
		JOINT RightLeg
		{
			OFFSET	 0.000000	 0.000000	 0.570047
			CHANNELS 3 Zrotation Xrotation Yrotation
			JOINT RightFoot
			{
				OFFSET	 0.000000	 0.000000	 0.544354
				CHANNELS 3 Zrotation Xrotation Yrotation
				JOINT RightToeBase
				{
					OFFSET	 0.000000	 0.000000	 0.207540
					CHANNELS 3 Zrotation Xrotation Yrotation
					End Site
					{
						OFFSET	 0.000000	 0.000000	 0.207540
					}
				}
			}
		}
	}
	JOINT Spine
	{
		OFFSET	 0.000184	-0.007763	 0.117403
		CHANNELS 3 Zrotation Xrotation Yrotation
		JOINT Spine1
		{
			OFFSET	 0.000000	 0.000000	 0.137269
			CHANNELS 3 Zrotation Xrotation Yrotation
			JOINT Spine2
			{
				OFFSET	 0.000000	 0.000000	 0.156879
				CHANNELS 3 Zrotation Xrotation Yrotation
				JOINT LeftShoulder
				{
					OFFSET	 0.080501	-0.002496	 0.160144
					CHANNELS 3 Zrotation Xrotation Yrotation
					JOINT LeftArm
					{
						OFFSET	 0.000000	 0.000000	 0.164363
						CHANNELS 3 Zrotation Xrotation Yrotation
						JOINT LeftForeArm
						{
							OFFSET	 0.000000	 0.000000	 0.364576
							CHANNELS 3 Zrotation Xrotation Yrotation
							JOINT LeftHand
							{
								OFFSET	 0.000000	 0.000000	 0.360812
								CHANNELS 3 Zrotation Xrotation Yrotation
								JOINT LeftHandIndex1
								{
									OFFSET	 0.000000	 0.000000	 0.086006
									CHANNELS 3 Zrotation Xrotation Yrotation
									JOINT LeftHandIndex2
									{
										OFFSET	 0.000000	 0.000000	 0.047237
										CHANNELS 3 Zrotation Xrotation Yrotation
										JOINT LeftHandIndex3
										{
											OFFSET	-0.004284	-0.000551	 0.038165
											CHANNELS 3 Zrotation Xrotation Yrotation
											End Site
											{
												OFFSET	-0.004284	-0.000551	 0.038165
											}
										}
									}
								}
							}
						}
					}
				}
				JOINT Neck
				{
					OFFSET	 0.000000	 0.000000	 0.176489
					CHANNELS 3 Zrotation Xrotation Yrotation
					JOINT Head
					{
						OFFSET	 0.000000	-0.001747	 0.077940
						CHANNELS 3 Zrotation Xrotation Yrotation
						End Site
						{
							OFFSET	 0.000000	-0.001747	 0.077940
						}
					}
				}
				JOINT RightShoulder
				{
					OFFSET	-0.080363	 0.000306	 0.159706
					CHANNELS 3 Zrotation Xrotation Yrotation
					JOINT RightArm
					{
						OFFSET	 0.000000	 0.000000	 0.164196
						CHANNELS 3 Zrotation Xrotation Yrotation
						JOINT RightForeArm
						{
							OFFSET	 0.000000	 0.000000	 0.365611
							CHANNELS 3 Zrotation Xrotation Yrotation
							JOINT RightHand
							{
								OFFSET	 0.000000	 0.000000	 0.360648
								CHANNELS 3 Zrotation Xrotation Yrotation
								JOINT RightHandIndex1
								{
									OFFSET	 0.000000	 0.000000	 0.069977
									CHANNELS 3 Zrotation Xrotation Yrotation
									JOINT RightHandIndex2
									{
										OFFSET	 0.000000	 0.000000	 0.052305
										CHANNELS 3 Zrotation Xrotation Yrotation
										JOINT RightHandIndex3
										{
											OFFSET	 0.009002	-0.000782	 0.042196
											CHANNELS 3 Zrotation Xrotation Yrotation
											End Site
											{
												OFFSET	 0.009002	-0.000782	 0.042196
											}
										}
									}
								}
							}
						}
					}
				}
			}
		}
	}
}
MOTION
Frames:    7
Frame Time: 0.03333334
-0.719308	-0.054485	 1.251072	 169.288100	-8.592387	-0.743104	 10.345110	 1.519368	 176.837800	-1.760341	-30.966340	-1.660126	-56.812020	 76.173970	 48.242190	-2.385833	 28.452760	 0.000004	-35.623400	-8.671272	-165.923200	 10.697070	-34.215310	 6.190147	 18.278430	 78.591620	-20.175230	 2.384659	 28.388700	-0.000001	 58.001060	 3.367625	-14.240080	 8.547648	 4.392281	-0.918492	-1.910918	 6.698132	 1.264045	-91.776230	 78.527360	-180.000000	-21.970090	 48.719390	-23.028200	-54.129250	 48.506770	-53.990360	-29.109820	-39.106700	-16.595670	-4.130354	 21.526190	 0.991307	-5.167926	 0.731697	 3.519349	-1.378229	 35.397820	-2.634230	 14.903580	 5.159949	-3.901150	 5.293420	-14.519260	-5.000134	 89.782100	 78.203890	 180.000000	-50.905860	 1.432526	 85.790780	-23.188010	 11.262820	 164.685500	-22.564960	-6.055471	-9.126644	 5.716295	 19.173350	-3.684826	 5.027458	 0.246833	-9.377971	-2.350882	 35.473990	 5.254307
-0.717686	-0.055263	 1.249917	 168.819600	-7.755045	-0.494602	 9.467772	 0.509980	 177.402200	-1.460260	-31.143320	-1.513140	-56.515670	 76.706070	 47.698610	-2.385833	 28.452760	 0.000004	-36.341290	-9.988234	-166.335800	 11.100330	-34.460140	 6.462779	 17.448850	 78.385570	-19.367830	 2.384659	 28.388700	-0.000001	 59.419340	 0.811106	-14.275180	 9.717485	 6.795349	-0.778855	-1.909355	 4.805773	 0.828149	-91.776170	 78.527360	 180.000000	-29.875530	 44.750810	-22.814380	-51.081170	 50.288120	-58.054680	-29.767050	-39.803740	-17.044710	-4.130354	 21.526190	 0.991307	-5.167926	 0.731697	 3.519349	-1.378229	 35.397820	-2.634230	 15.117940	 5.558478	-4.652253	 5.164056	-16.620100	-5.147854	 89.782030	 78.203900	-179.999900	-50.528160	-0.744865	 85.967400	-21.061800	 10.849400	 163.081000	-28.018660	-3.574926	-9.545167	 5.716295	 19.173350	-3.684826	 5.027458	 0.246833	-9.377971	-2.350882	 35.473990	 5.254307
-0.716124	-0.055779	 1.249240	 168.325600	-6.579721	-0.492737	 8.472622	-0.665847	 178.138200	-1.127106	-31.032610	-1.336246	-54.956800	 77.078090	 45.937950	-2.385833	 28.452760	 0.000004	-36.972930	-11.716450	-166.860700	 11.560440	-34.942490	 6.812002	 16.549050	 78.426880	-18.345740	 2.384659	 28.388700	-0.000001	 61.159080	-2.411240	-14.035270	 11.270780	 9.492412	-0.266633	-1.994260	 2.788396	 0.081528	-91.776180	 78.527360	-180.000000	-37.119320	 40.629320	-26.170730	-49.200000	 50.968980	-60.377960	-29.874670	-40.175170	-16.854380	-4.130354	 21.526190	 0.991307	-5.167926	 0.731697	 3.519349	-1.378229	 35.397820	-2.634230	 15.150630	 5.924712	-5.215969	 5.059495	-18.773730	-5.431555	 89.782060	 78.203870	-179.999900	-48.705140	-2.908139	 87.267920	-18.203220	 10.135450	 160.886300	-34.076720	 0.727391	-11.139850	 5.716295	 19.173350	-3.684826	 5.027458	 0.246833	-9.377971	-2.350882	 35.473990	 5.254307
-0.715922	-0.055232	 1.249384	 167.896900	-5.701949	-0.199121	 7.186646	-1.335925	 178.241400	-0.732140	-30.914880	-1.128519	-57.118000	 77.370990	 47.957080	-2.385833	 28.452760	 0.000004	-37.887520	-12.542290	-167.528500	 11.997800	-35.166770	 7.109121	 16.667760	 78.602390	-18.393430	 2.384659	 28.388700	-0.000001	 62.954010	-5.491149	-13.515330	 13.212960	 11.176890	-1.769675	-2.273338	 1.695901	 0.050151	-91.776180	 78.527420	-180.000000	-42.170390	 38.195740	-31.805980	-49.277310	 50.267150	-59.936450	-29.439360	-40.505920	-16.173470	-4.130354	 21.526190	 0.991307	-5.167926	 0.731697	 3.519349	-1.378229	 35.397820	-2.634230	 14.764120	 5.386858	-5.015276	 4.764316	-19.517150	-6.080659	 89.782100	 78.203850	 180.000000	-45.831560	-4.622543	 89.460520	-15.441760	 9.631420	 158.235700	-39.558130	 6.040355	-13.421010	 5.716295	 19.173350	-3.684826	 5.027458	 0.246833	-9.377971	-2.350882	 35.473990	 5.254307
-0.719375	-0.053560	 1.250703	 167.546100	-5.064734	 0.196503	 6.257730	-1.597516	 178.210300	-0.468085	-30.909530	-0.992570	-58.108670	 77.543200	 48.999850	-2.385833	 28.452760	 0.000004	-38.802620	-12.773220	-167.885200	 12.413610	-34.847410	 7.298581	 18.218440	 78.704700	-19.989110	 2.384659	 28.388700	-0.000001	 64.876430	-8.304127	-13.380130	 15.404400	 12.362740	-4.839603	-2.816258	 0.728565	 1.120569	-91.776190	 78.527380	-180.000000	-44.333920	 35.845230	-39.066510	-50.773740	 48.494140	-57.427100	-27.557210	-40.198590	-14.317700	-4.130354	 21.526190	 0.991307	-5.167926	 0.731697	 3.519349	-1.378229	 35.397820	-2.634230	 14.068440	 5.039008	-4.595763	 4.139535	-20.814320	-7.590328	 89.782110	 78.203890	 180.000000	-41.629340	-7.072526	 91.595700	-12.628120	 9.761532	 154.135300	-44.877060	 11.749750	-15.844340	 5.716295	 19.173350	-3.684826	 5.027458	 0.246833	-9.377971	-2.350882	 35.473990	 5.254307
-0.723754	-0.051648	 1.252482	 167.358200	-4.439313	 0.811599	 4.931345	-2.319327	 178.156200	-0.078349	-31.179140	-0.798442	-58.006700	 78.008740	 48.752060	-2.385833	 28.452760	 0.000004	-39.963590	-13.317780	-168.639600	 12.882780	-34.715660	 7.551175	 17.495510	 78.728520	-19.213510	 2.384659	 28.388700	-0.000001	 66.882050	-10.814340	-13.426830	 17.631690	 11.652830	-7.516910	-3.379287	 1.090984	 2.163281	-91.776120	 78.527430	 179.999900	-44.249400	 34.480460	-46.486570	-52.460770	 46.040810	-54.281540	-24.685210	-39.554260	-11.728230	-4.130354	 21.526190	 0.991307	-5.167926	 0.731697	 3.519349	-1.378229	 35.397820	-2.634230	 13.314150	 4.054815	-4.225187	 3.383057	-21.043850	-9.574808	 89.782120	 78.203870	 180.000000	-36.078800	-7.727332	 94.888450	-10.030810	 10.884390	 148.176900	-47.616880	 17.275550	-18.589670	 5.716295	 19.173350	-3.684826	 5.027458	 0.246833	-9.377971	-2.350882	 35.473990	 5.254307
-0.726007	-0.048560	 1.253721	 167.347900	-3.804530	 1.560703	 3.387867	-2.892370	 177.896500	 0.447067	-31.245210	-0.527311	-59.107170	 78.139310	 49.718160	-2.385833	 28.452760	 0.000004	-41.162570	-13.674130	-169.138800	 13.379170	-34.989810	 7.897849	 18.872880	 79.216040	-20.537810	 2.384659	 28.388700	-0.000001	 68.707940	-13.310730	-12.926010	 19.779040	 10.810070	-9.412768	-3.908221	 1.466705	 2.576529	-91.776180	 78.527380	-180.000000	-41.909250	 33.215440	-54.658740	-53.742880	 43.530990	-51.445130	-21.565530	-38.643810	-9.037295	-4.130354	 21.526190	 0.991307	-5.167926	 0.731697	 3.519349	-1.378229	 35.397820	-2.634230	 12.663330	 3.848523	-3.979511	 2.737217	-21.947990	-10.875130	 89.782100	 78.203820	-180.000000	-30.436150	-5.034241	 98.320180	-6.904384	 11.974270	 140.318700	-49.342060	 23.478360	-18.052740	 5.716295	 19.173350	-3.684826	 5.027458	 0.246833	-9.377971	-2.350882	 35.473990	 5.254307
